<mxfile host="app.diagrams.net" modified="2023-09-28T10:40:22.451Z" agent="Mozilla/5.0 (Windows NT 10.0; Win64; x64) AppleWebKit/537.36 (KHTML, like Gecko) Chrome/117.0.0.0 Safari/537.36" etag="GQXfsBG2-62lrXb28HOO" version="21.7.2" type="device">
  <diagram name="Page-1" id="DDKhiq8WEydON6FSSnmm">
    <mxGraphModel dx="1912" dy="593" grid="1" gridSize="10" guides="1" tooltips="1" connect="1" arrows="1" fold="1" page="1" pageScale="1" pageWidth="850" pageHeight="1100" math="0" shadow="0">
      <root>
        <mxCell id="0" />
        <mxCell id="1" parent="0" />
        <mxCell id="54NAysVAyfhH1ZwWErc4-1" value="&lt;font style=&quot;font-size: 16px;&quot;&gt;LOGIN FLOWCHART&lt;/font&gt;" style="text;html=1;align=center;verticalAlign=middle;resizable=0;points=[];autosize=1;strokeColor=none;fillColor=none;" vertex="1" parent="1">
          <mxGeometry x="210" y="98" width="180" height="30" as="geometry" />
        </mxCell>
        <mxCell id="54NAysVAyfhH1ZwWErc4-3" style="edgeStyle=orthogonalEdgeStyle;rounded=0;orthogonalLoop=1;jettySize=auto;html=1;" edge="1" parent="1" source="54NAysVAyfhH1ZwWErc4-2">
          <mxGeometry relative="1" as="geometry">
            <mxPoint x="310" y="390" as="targetPoint" />
          </mxGeometry>
        </mxCell>
        <mxCell id="54NAysVAyfhH1ZwWErc4-2" value="&lt;font style=&quot;font-size: 18px;&quot;&gt;LOGIN&lt;/font&gt;" style="rounded=0;whiteSpace=wrap;html=1;" vertex="1" parent="1">
          <mxGeometry x="250" y="260" width="120" height="60" as="geometry" />
        </mxCell>
        <mxCell id="54NAysVAyfhH1ZwWErc4-26" style="edgeStyle=orthogonalEdgeStyle;rounded=0;orthogonalLoop=1;jettySize=auto;html=1;entryX=0.5;entryY=0;entryDx=0;entryDy=0;" edge="1" parent="1" source="54NAysVAyfhH1ZwWErc4-4" target="54NAysVAyfhH1ZwWErc4-27">
          <mxGeometry relative="1" as="geometry">
            <mxPoint x="580" y="540" as="targetPoint" />
          </mxGeometry>
        </mxCell>
        <mxCell id="54NAysVAyfhH1ZwWErc4-33" style="edgeStyle=orthogonalEdgeStyle;rounded=0;orthogonalLoop=1;jettySize=auto;html=1;entryX=0.5;entryY=0;entryDx=0;entryDy=0;" edge="1" parent="1" source="54NAysVAyfhH1ZwWErc4-4" target="54NAysVAyfhH1ZwWErc4-25">
          <mxGeometry relative="1" as="geometry" />
        </mxCell>
        <mxCell id="54NAysVAyfhH1ZwWErc4-35" style="edgeStyle=orthogonalEdgeStyle;rounded=0;orthogonalLoop=1;jettySize=auto;html=1;" edge="1" parent="1" source="54NAysVAyfhH1ZwWErc4-4">
          <mxGeometry relative="1" as="geometry">
            <mxPoint x="310" y="570" as="targetPoint" />
          </mxGeometry>
        </mxCell>
        <mxCell id="54NAysVAyfhH1ZwWErc4-4" value="&lt;font style=&quot;font-size: 17px;&quot;&gt;Usertype?&lt;/font&gt;" style="rhombus;whiteSpace=wrap;html=1;" vertex="1" parent="1">
          <mxGeometry x="245" y="390" width="130" height="140" as="geometry" />
        </mxCell>
        <mxCell id="54NAysVAyfhH1ZwWErc4-38" style="edgeStyle=orthogonalEdgeStyle;rounded=0;orthogonalLoop=1;jettySize=auto;html=1;" edge="1" parent="1" source="54NAysVAyfhH1ZwWErc4-25">
          <mxGeometry relative="1" as="geometry">
            <mxPoint x="70" y="670" as="targetPoint" />
          </mxGeometry>
        </mxCell>
        <mxCell id="54NAysVAyfhH1ZwWErc4-25" value="&lt;font style=&quot;font-size: 15px;&quot;&gt;Admin/Officer&lt;/font&gt;" style="rounded=0;whiteSpace=wrap;html=1;" vertex="1" parent="1">
          <mxGeometry x="10" y="570" width="120" height="50" as="geometry" />
        </mxCell>
        <mxCell id="54NAysVAyfhH1ZwWErc4-58" style="edgeStyle=orthogonalEdgeStyle;rounded=0;orthogonalLoop=1;jettySize=auto;html=1;entryX=0.5;entryY=0;entryDx=0;entryDy=0;" edge="1" parent="1" source="54NAysVAyfhH1ZwWErc4-27" target="54NAysVAyfhH1ZwWErc4-55">
          <mxGeometry relative="1" as="geometry" />
        </mxCell>
        <mxCell id="54NAysVAyfhH1ZwWErc4-27" value="&lt;font style=&quot;font-size: 18px;&quot;&gt;Member&lt;/font&gt;" style="rounded=0;whiteSpace=wrap;html=1;" vertex="1" parent="1">
          <mxGeometry x="500" y="560" width="120" height="60" as="geometry" />
        </mxCell>
        <mxCell id="54NAysVAyfhH1ZwWErc4-52" style="edgeStyle=orthogonalEdgeStyle;rounded=0;orthogonalLoop=1;jettySize=auto;html=1;entryX=0.5;entryY=0;entryDx=0;entryDy=0;" edge="1" parent="1" source="54NAysVAyfhH1ZwWErc4-29" target="54NAysVAyfhH1ZwWErc4-47">
          <mxGeometry relative="1" as="geometry" />
        </mxCell>
        <mxCell id="54NAysVAyfhH1ZwWErc4-29" value="&lt;font style=&quot;font-size: 16px;&quot;&gt;Applicant&lt;/font&gt;" style="rounded=0;whiteSpace=wrap;html=1;" vertex="1" parent="1">
          <mxGeometry x="250" y="570" width="120" height="50" as="geometry" />
        </mxCell>
        <mxCell id="54NAysVAyfhH1ZwWErc4-37" style="edgeStyle=orthogonalEdgeStyle;rounded=0;orthogonalLoop=1;jettySize=auto;html=1;entryX=0.5;entryY=0;entryDx=0;entryDy=0;" edge="1" parent="1" source="54NAysVAyfhH1ZwWErc4-36" target="54NAysVAyfhH1ZwWErc4-2">
          <mxGeometry relative="1" as="geometry" />
        </mxCell>
        <mxCell id="54NAysVAyfhH1ZwWErc4-36" value="&lt;font style=&quot;font-size: 18px;&quot;&gt;START&lt;/font&gt;" style="ellipse;whiteSpace=wrap;html=1;" vertex="1" parent="1">
          <mxGeometry x="250" y="140" width="120" height="80" as="geometry" />
        </mxCell>
        <mxCell id="54NAysVAyfhH1ZwWErc4-43" style="edgeStyle=orthogonalEdgeStyle;rounded=0;orthogonalLoop=1;jettySize=auto;html=1;entryX=0.5;entryY=0;entryDx=0;entryDy=0;" edge="1" parent="1" source="54NAysVAyfhH1ZwWErc4-40" target="54NAysVAyfhH1ZwWErc4-41">
          <mxGeometry relative="1" as="geometry" />
        </mxCell>
        <mxCell id="54NAysVAyfhH1ZwWErc4-40" value="&lt;font style=&quot;font-size: 15px;&quot;&gt;Manage Applicants&lt;/font&gt;" style="rounded=0;whiteSpace=wrap;html=1;" vertex="1" parent="1">
          <mxGeometry x="10" y="760" width="120" height="50" as="geometry" />
        </mxCell>
        <mxCell id="54NAysVAyfhH1ZwWErc4-44" style="edgeStyle=orthogonalEdgeStyle;rounded=0;orthogonalLoop=1;jettySize=auto;html=1;entryX=0.5;entryY=0;entryDx=0;entryDy=0;" edge="1" parent="1" source="54NAysVAyfhH1ZwWErc4-41" target="54NAysVAyfhH1ZwWErc4-42">
          <mxGeometry relative="1" as="geometry" />
        </mxCell>
        <mxCell id="54NAysVAyfhH1ZwWErc4-41" value="&lt;font style=&quot;font-size: 15px;&quot;&gt;Manage Documents&lt;/font&gt;" style="rounded=0;whiteSpace=wrap;html=1;" vertex="1" parent="1">
          <mxGeometry x="10" y="840" width="120" height="50" as="geometry" />
        </mxCell>
        <mxCell id="54NAysVAyfhH1ZwWErc4-46" style="edgeStyle=orthogonalEdgeStyle;rounded=0;orthogonalLoop=1;jettySize=auto;html=1;entryX=0.5;entryY=0;entryDx=0;entryDy=0;" edge="1" parent="1" source="54NAysVAyfhH1ZwWErc4-42" target="54NAysVAyfhH1ZwWErc4-45">
          <mxGeometry relative="1" as="geometry" />
        </mxCell>
        <mxCell id="54NAysVAyfhH1ZwWErc4-42" value="&lt;font style=&quot;font-size: 15px;&quot;&gt;Manage Members&lt;/font&gt;" style="rounded=0;whiteSpace=wrap;html=1;" vertex="1" parent="1">
          <mxGeometry x="10" y="920" width="120" height="50" as="geometry" />
        </mxCell>
        <mxCell id="54NAysVAyfhH1ZwWErc4-45" value="&lt;font style=&quot;font-size: 15px;&quot;&gt;Manage News and Announcements&lt;/font&gt;" style="rounded=0;whiteSpace=wrap;html=1;" vertex="1" parent="1">
          <mxGeometry x="10" y="1000" width="120" height="60" as="geometry" />
        </mxCell>
        <mxCell id="54NAysVAyfhH1ZwWErc4-54" style="edgeStyle=orthogonalEdgeStyle;rounded=0;orthogonalLoop=1;jettySize=auto;html=1;entryX=0.5;entryY=0;entryDx=0;entryDy=0;" edge="1" parent="1" source="54NAysVAyfhH1ZwWErc4-47" target="54NAysVAyfhH1ZwWErc4-53">
          <mxGeometry relative="1" as="geometry" />
        </mxCell>
        <mxCell id="54NAysVAyfhH1ZwWErc4-47" value="&lt;font style=&quot;font-size: 16px;&quot;&gt;Applicant Dashboard&lt;/font&gt;" style="rounded=0;whiteSpace=wrap;html=1;" vertex="1" parent="1">
          <mxGeometry x="250" y="660" width="120" height="50" as="geometry" />
        </mxCell>
        <mxCell id="54NAysVAyfhH1ZwWErc4-51" style="edgeStyle=orthogonalEdgeStyle;rounded=0;orthogonalLoop=1;jettySize=auto;html=1;entryX=0.5;entryY=0;entryDx=0;entryDy=0;" edge="1" parent="1" source="54NAysVAyfhH1ZwWErc4-49" target="54NAysVAyfhH1ZwWErc4-40">
          <mxGeometry relative="1" as="geometry" />
        </mxCell>
        <mxCell id="54NAysVAyfhH1ZwWErc4-49" value="&lt;font style=&quot;font-size: 15px;&quot;&gt;Admin Dashboard&lt;/font&gt;" style="rounded=0;whiteSpace=wrap;html=1;" vertex="1" parent="1">
          <mxGeometry x="10" y="670" width="120" height="50" as="geometry" />
        </mxCell>
        <mxCell id="54NAysVAyfhH1ZwWErc4-53" value="&lt;font style=&quot;font-size: 16px;&quot;&gt;Submit Document Requirements&lt;/font&gt;" style="rounded=0;whiteSpace=wrap;html=1;" vertex="1" parent="1">
          <mxGeometry x="250" y="740" width="120" height="70" as="geometry" />
        </mxCell>
        <mxCell id="54NAysVAyfhH1ZwWErc4-59" style="edgeStyle=orthogonalEdgeStyle;rounded=0;orthogonalLoop=1;jettySize=auto;html=1;entryX=0.5;entryY=0;entryDx=0;entryDy=0;" edge="1" parent="1" source="54NAysVAyfhH1ZwWErc4-55" target="54NAysVAyfhH1ZwWErc4-56">
          <mxGeometry relative="1" as="geometry" />
        </mxCell>
        <mxCell id="54NAysVAyfhH1ZwWErc4-55" value="&lt;font style=&quot;font-size: 16px;&quot;&gt;Member Dashboard&lt;/font&gt;" style="rounded=0;whiteSpace=wrap;html=1;" vertex="1" parent="1">
          <mxGeometry x="500" y="660" width="120" height="50" as="geometry" />
        </mxCell>
        <mxCell id="54NAysVAyfhH1ZwWErc4-60" style="edgeStyle=orthogonalEdgeStyle;rounded=0;orthogonalLoop=1;jettySize=auto;html=1;entryX=0.5;entryY=0;entryDx=0;entryDy=0;" edge="1" parent="1" source="54NAysVAyfhH1ZwWErc4-56" target="54NAysVAyfhH1ZwWErc4-57">
          <mxGeometry relative="1" as="geometry" />
        </mxCell>
        <mxCell id="54NAysVAyfhH1ZwWErc4-56" value="&lt;span style=&quot;font-size: 16px;&quot;&gt;Manage Account&lt;/span&gt;" style="rounded=0;whiteSpace=wrap;html=1;" vertex="1" parent="1">
          <mxGeometry x="500" y="750" width="120" height="50" as="geometry" />
        </mxCell>
        <mxCell id="54NAysVAyfhH1ZwWErc4-62" style="edgeStyle=orthogonalEdgeStyle;rounded=0;orthogonalLoop=1;jettySize=auto;html=1;entryX=0.5;entryY=0;entryDx=0;entryDy=0;" edge="1" parent="1" source="54NAysVAyfhH1ZwWErc4-57" target="54NAysVAyfhH1ZwWErc4-61">
          <mxGeometry relative="1" as="geometry" />
        </mxCell>
        <mxCell id="54NAysVAyfhH1ZwWErc4-57" value="&lt;font style=&quot;font-size: 16px;&quot;&gt;Upload Required Documents&lt;/font&gt;" style="rounded=0;whiteSpace=wrap;html=1;" vertex="1" parent="1">
          <mxGeometry x="500" y="840" width="120" height="70" as="geometry" />
        </mxCell>
        <mxCell id="54NAysVAyfhH1ZwWErc4-61" value="&lt;span style=&quot;font-size: 16px;&quot;&gt;View News and Announcement&lt;/span&gt;" style="rounded=0;whiteSpace=wrap;html=1;" vertex="1" parent="1">
          <mxGeometry x="500" y="940" width="120" height="70" as="geometry" />
        </mxCell>
        <mxCell id="54NAysVAyfhH1ZwWErc4-63" value="The user can only &lt;br&gt;edit personal information that are &lt;br&gt;not crucial about the membership&amp;nbsp; system, &lt;br&gt;and change password" style="text;html=1;align=center;verticalAlign=middle;resizable=0;points=[];autosize=1;strokeColor=none;fillColor=none;" vertex="1" parent="1">
          <mxGeometry x="610" y="740" width="250" height="70" as="geometry" />
        </mxCell>
        <mxCell id="54NAysVAyfhH1ZwWErc4-64" value="Members can only upload a document &lt;br&gt;required by officers/admin" style="text;html=1;align=center;verticalAlign=middle;resizable=0;points=[];autosize=1;strokeColor=none;fillColor=none;" vertex="1" parent="1">
          <mxGeometry x="620" y="855" width="230" height="40" as="geometry" />
        </mxCell>
        <mxCell id="54NAysVAyfhH1ZwWErc4-65" value="Applicants can &lt;br&gt;only upload documents" style="text;html=1;align=center;verticalAlign=middle;resizable=0;points=[];autosize=1;strokeColor=none;fillColor=none;" vertex="1" parent="1">
          <mxGeometry x="235" y="840" width="150" height="40" as="geometry" />
        </mxCell>
        <mxCell id="54NAysVAyfhH1ZwWErc4-66" value="Officers/admins have the highest&lt;br&gt;authority in the system" style="text;html=1;align=center;verticalAlign=middle;resizable=0;points=[];autosize=1;strokeColor=none;fillColor=none;" vertex="1" parent="1">
          <mxGeometry x="-30" y="1090" width="200" height="40" as="geometry" />
        </mxCell>
      </root>
    </mxGraphModel>
  </diagram>
</mxfile>
